# xmcd
#
# Track frame offsets: 
#        150
#        12575
#        45547
#        58429
#        69021
#        107766
#        129209
#        161257
#
# Disc length: 2695 seconds
#
# Revision: 1
# Processed by: cddbd v1.5.2PL0 Copyright (c) Steve Scherf et al.
# Submitted via: ExactAudioCopy v1.0b1
#
DISCID=610a8508
DTITLE=Emerson, Lake and Palmer - Brain Salad Surgery - Deluxe Edition -
DTITLE=New Stereo Mix - Cd 2
DYEAR=2014
DGENRE=Progressive Rock
TTITLE0=Jerusalem
TTITLE1=Toccata
TTITLE2=Still...You Turn Me On
TTITLE3=Benny The Bouncer
TTITLE4=Karn Evil 9 1st Impression - Part 1
TTITLE5=Karn Evil 9 1st Impression - Part 2
TTITLE6=Karn Evil 9 2nd Impression
TTITLE7=Karn Evil 9 3rd Impression
EXTD=Produced by Greg Lake at Advision Studios YEAR: 1973
EXTT0=
EXTT1=(An Adaptation Of Ginastera's 1St Piano Concerto, 4Th Movement)
EXTT2=
EXTT3=
EXTT4=
EXTT5=
EXTT6=
EXTT7=
PLAYORDER=
